# AST/ASF file generated using VICON BodyLanguage
# -----------------------------------------------
:version 1.10
:name VICON
:units
  mass 1.0
  length 0.45
  angle deg
:documentation
   .ast/.asf automatically generated from VICON data using
   VICON BodyBuilder and BodyLanguage model FoxedUp or BRILLIANT.MOD
:root
   order TX TY TZ RX RY RZ
   axis XYZ
   position 0 0 0  
   orientation 0 0 0 
:bonedata
  begin
     id 1 
     name lhipjoint
     direction 0.645897 -0.709066 0.282916 
     length 2.50918 
     axis 0 0 0  XYZ
  end
  begin
     id 2 
     name lfemur
     direction 0.34202 -0.939693 0  
     length 6.85725  
     axis 0 0 20  XYZ
    dof rx ry rz
    limits (-160.0 20.0)
           (-70.0 70.0)
           (-60.0 70.0)
  end
  begin
     id 3 
     name ltibia
     direction 0.34202 -0.939693 0   
     length 8.01778   
     axis 0 0 20   XYZ
    dof rx
    limits (-10.0 170.0)
  end
  begin
     id 4 
     name lfoot
     direction 0.0796011 -0.218702 0.972539   
     length 2.13962   
     axis -90 7.62852e-016 20   XYZ
    dof rx rz
    limits (-45.0 90.0)
           (-70.0 20.0)
  end
  begin
     id 5 
     name ltoes
     direction 1.53548e-011 -4.21881e-011 1   
     length 1.07476   
     axis -90 7.62852e-016 20   XYZ
    dof rx
    limits (-90.0 20.0)
  end
  begin
     id 6 
     name rhipjoint
     direction -0.63101 -0.720537 0.287493   
     length 2.46923  
     axis 0 0 0  XYZ 
  end
  begin
     id 7 
     name rfemur
     direction -0.34202 -0.939693 0   
     length 6.81957   
     axis 0 0 -20   XYZ
    dof rx ry rz
    limits (-160.0 20.0)
           (-70.0 70.0)
           (-70.0 60.0)
  end
  begin
     id 8 
     name rtibia
     direction -0.34202 -0.939693 0   
     length 8.15152   
     axis 0 0 -20   XYZ
    dof rx
    limits (-10.0 170.0)
 end
 begin
     id 9 
     name rfoot
     direction -0.105819 -0.290734 0.950934   
     length 2.14588  
     axis -90 -7.62852e-016 -20   XYZ
    dof rx rz
    limits (-45.0 90.0)
           (-20.0 70.0)
  end
  begin
     id 10 
     name rtoes
     direction -1.53512e-011 -4.22005e-011 1   
     length 1.0703   
     axis -90 -7.62852e-016 -20   XYZ
    dof rx
    limits (-90.0 20.0)
  end
  begin
     id 11 
     name lowerback
     direction 0.0114933 0.999236 0.0373542   
     length 1.91711   
     axis 0 0 0   XYZ
    dof rx ry rz
    limits (-20.0 45.0)
           (-30.0 30.0)
           (-30.0 30.0)
  end
  begin
     id 12 
     name upperback
     direction 0.00911529 0.998099 0.0609554   
     length 1.90888   
     axis 0 0 0   XYZ
    dof rx ry rz
    limits (-20.0 45.0)
           (-30.0 30.0)
           (-30.0 30.0)
  end
  begin
     id 13 
     name thorax
     direction 0.00357322 0.99911 0.0420379   
     length 1.90942   
     axis 0 0 0   XYZ
    dof rx ry rz
    limits (-20.0 45.0)
           (-30.0 30.0)
           (-30.0 30.0)
  end
  begin
     id 14 
     name lowerneck
     direction -0.0589311 0.997882 0.0275448   
     length 1.83956   
     axis 0 0 0   XYZ
    dof rx ry rz
    limits (-20.0 45.0)
           (-30.0 30.0)
           (-30.0 30.0)
  end
  begin
     id 15 
     name upperneck
     direction 0.0362633 0.960055 -0.277453   
     length 1.82031   
     axis 0 0 0   XYZ
    dof rx ry rz
    limits (-20.0 45.0)
           (-30.0 30.0)
           (-30.0 30.0)
  end
  begin
     id 16
     name head
     direction 0.0166719 0.995328 -0.0951042  
     length 1.86084  
     axis 0 0 0   XYZ
    dof rx ry rz
    limits (-20.0 45.0)
           (-30.0 30.0)
           (-30.0 30.0)
  end
  begin
     id 17 
     name lclavicle
     direction 0.90319 0.426238 0.0506919  
     length 3.17828  
     axis 0 0 0   XYZ
    dof ry rz
    limits (-20.0 10.0)
           (0.0 20.0)
  end
  begin
     id 18 
     name lhumerus
     direction 1 -4.48953e-011 6.78797e-028   
     length 5.43592   
     axis 180 -30 -90   XYZ
    dof rx ry rz
    limits (-60.0 90.0)
           (-90.0 90.0)
           (-90.0 90.0)
  end
  begin
     id 19
     name lradius
     direction 1 -4.48969e-011 7.02702e-027   
     length 3.2546   
     axis 180 -30 -90   XYZ
    dof rx
    limits (-10.0 170.0)
  end
  begin
     id 20
     name lwrist
     direction 1 -4.48975e-011 1.29807e-026   
     length 1.6273   
     axis -8.50346e-015 90 90   XYZ
    dof ry
    limits (-180.0 0.0)
 end
  begin
     id 21 
     name lhand
     direction 1 -4.48917e-011 2.59615e-026   
     length 0.498244   
     axis -1.65656e-014 90 90   XYZ
    dof rx rz
    limits (-90.0 90.0)
           (-45.0 45.0)
  end
  begin
     id 22 
     name lfingers
     direction 1 -4.48885e-011 5.1923e-026   
     length 0.401697   
     axis -3.31313e-014 90 90   XYZ
    dof rx
    limits (0.0 90.0)
  end
  begin
     id 23
     name lthumb
     direction 0.707107 -6.34946e-011 0.707107   
     length 0.576759   
     axis -90 45 2.85299e-015   XYZ
    dof rx rz
    limits (-45.0 45.0)
           (-45.0 45.0)
  end
  begin
     id 24 
     name rclavicle
     direction -0.908603 0.391432 0.145676   
     length 3.15477  
     axis 0 0 0   XYZ 
    dof ry rz
    limits (-10.0 20.0)
           (-20.0 0.0)
  end
  begin
     id 25 
     name rhumerus
     direction -1 -4.4898e-011 1.02852e-027  
     length 5.3383   
     axis 180 30 90   XYZ
    dof rx ry rz
    limits (-90.0 60.0)
           (-90.0 90.0)
           (-90.0 90.0)
  end
  begin
     id 26 
     name rradius
     direction -1 -4.48968e-011 7.05567e-027   
     length 3.23148   
     axis 180 30 90   XYZ
    dof rx
    limits (-10.0 170.0)
  end
  begin
     id 27 
     name rwrist
     direction -1 -4.48927e-011 1.29807e-026   
     length 1.61574   
     axis -8.50346e-015 -90 -90   XYZ
    dof ry
    limits (-180.0 0.0)
  end
  begin
     id 28
     name rhand
     direction -1 -4.48905e-011 2.59615e-026   
     length 0.463641   
     axis -1.65656e-014 -90 -90   XYZ
    dof rx rz
    limits (-90.0 90.0)
           (-45.0 45.0)
  end
  begin
     id 29
     name rfingers
     direction -1 -4.49167e-011 5.1923e-026   
     length 0.373799   
     axis -3.31313e-014 -90 -90   XYZ
    dof rx
    limits (0.0 90.0)
  end
  begin
     id 30
     name rthumb
     direction -0.707107 -6.34954e-011 0.707107   
     length 0.536703   
     axis -90 -45 -2.85299e-015   XYZ
    dof rx rz
    limits (-45.0 45.0)
           (-45.0 45.0)
  end
:hierarchy
  begin
    root lhipjoint rhipjoint lowerback
    lhipjoint lfemur
    lfemur ltibia
    ltibia lfoot
    lfoot ltoes
    rhipjoint rfemur
    rfemur rtibia
    rtibia rfoot
    rfoot rtoes
    lowerback upperback
    upperback thorax
    thorax lowerneck lclavicle rclavicle
    lowerneck upperneck
    upperneck head
    lclavicle lhumerus
    lhumerus lradius
    lradius lwrist
    lwrist lhand lthumb
    lhand lfingers
    rclavicle rhumerus
    rhumerus rradius
    rradius rwrist
    rwrist rhand rthumb
    rhand rfingers
  end

#!OML:ASF F:\VICON\USERDATA\INSTALL\rory3\rory3.ASF
:FULLY-SPECIFIED
:DEGREES
1
root 3.82301 17.6097 4.16039 21.6077 -8.19273 -3.99474
lowerback -8.26514 -1.3705 4.60664
upperback -13.5643 -1.72767 4.55441
thorax -9.89012 -1.07868 2.34779
lowerneck -6.17616 18.5753 14.4154
upperneck 14.3681 22.959 3.5582
head 6.60649 12.0985 1.01385
rclavicle -3.22031e-014 1.59028e-015
rhumerus -11.7837 -24.3414 26.7953
rradius 119.484
rwrist -60.2377
rhand -3.55896 -44.9432
rfingers 7.12502
rthumb 22.1774 -73.6911
lclavicle -3.22031e-014 1.59028e-015
lhumerus 25.7883 32.3506 -18.0543
lradius 28.2417
lwrist 35.5081
lhand -23.1389 -15.8885
lfingers 7.12502
lthumb 3.30895 14.0656
rfemur -6.18553 10.5062 -1.74999
rtibia 8.80904
rfoot 22.6135 -7.17903
rtoes -38.169
lfemur -23.5862 -7.34287 -20.772
ltibia 19.9303
lfoot -15.0168 13.4499
ltoes 9.53967
2
root 3.82355 17.6107 4.15897 21.6548 -8.1543 -4.06438
lowerback -8.22944 -1.36636 4.66723
upperback -13.6171 -1.71684 4.5696
thorax -9.97551 -1.07893 2.33565
lowerneck -6.118 18.5847 14.4748
upperneck 14.3546 22.9743 3.55984
head 6.60024 12.1086 1.00416
rclavicle -4.87022e-014 -2.14687e-014
rhumerus -11.7423 -24.2439 26.7551
rradius 119.499
rwrist -60.187
rhand -3.45687 -44.8219
rfingers 7.12502
rthumb 22.2754 -73.558
lclavicle -4.87022e-014 -2.14687e-014
lhumerus 25.9662 32.5573 -17.7789
lradius 28.201
lwrist 35.3154
lhand -23.2482 -16.0674
lfingers 7.12502
lthumb 3.20343 13.8883
rfemur -6.16211 10.4856 -1.65545
rtibia 8.68433
rfoot 22.7071 -7.20346
rtoes -38.1155
lfemur -23.6726 -7.32728 -20.6828
ltibia 20.0012
lfoot -15.017 13.3946
ltoes 9.52998
3
root 3.8242 17.6121 4.15825 21.6936 -8.13625 -4.08491
lowerback -8.35499 -1.35272 4.68841
upperback -13.5523 -1.71194 4.56397
thorax -9.82792 -1.07791 2.30856
lowerneck -6.23867 18.6039 14.4382
upperneck 14.3141 22.9874 3.53618
head 6.60501 12.1091 1.01181
rclavicle -4.39314e-014 -1.43125e-014
rhumerus -11.7912 -24.3299 26.7351
rradius 119.474
rwrist -60.2436
rhand -3.5754 -44.6881
rfingers 7.12502
rthumb 22.1616 -73.4378
lclavicle -4.39314e-014 -1.43125e-014
lhumerus 26.1799 33.0342 -17.4555
lradius 28.0998
lwrist 34.9437
lhand -23.1347 -16.0062
lfingers 7.12502
lthumb 3.31298 13.9478
rfemur -6.0882 10.4645 -1.62927
rtibia 8.4766
rfoot 22.8418 -7.22021
rtoes -38.2192
lfemur -23.7336 -7.32698 -20.6546
ltibia 20.048
lfoot -14.9968 13.3949
ltoes 9.16032
4
root 3.82763 17.6095 4.16615 21.6377 -8.14167 -4.06224
lowerback -8.53232 -1.35617 4.75949
upperback -13.5229 -1.73426 4.55356
thorax -9.69457 -1.09618 2.24921
lowerneck -5.91099 18.6116 14.376
upperneck 14.178 23.0638 3.5425
head 6.50292 12.1427 0.985486
rclavicle 2.34566e-014 -5.80451e-014
rhumerus -11.693 -24.2325 26.6766
rradius 119.489
rwrist -60.2191
rhand -4.0732 -44.7455
rfingers 7.12502
rthumb 21.6837 -73.5512
lclavicle 2.34566e-014 -5.80451e-014
lhumerus 26.107 32.9202 -17.4946
lradius 28.1279
lwrist 34.9812
lhand -23.4218 -15.9522
lfingers 7.12502
lthumb 3.03573 14.0059
rfemur -5.94411 10.4775 -1.67013
rtibia 8.37553
rfoot 22.8812 -7.22281
rtoes -38.4047
lfemur -23.6628 -7.4129 -20.7014
ltibia 20.0925
lfoot -15.0459 13.5162
ltoes 8.97778
5
root 3.8302 17.6073 4.16974 21.5826 -8.17077 -4.08098
lowerback -8.56257 -1.37652 4.89733
upperback -13.73 -1.75721 4.56455
thorax -9.92688 -1.12398 2.19752
lowerneck -4.63728 18.5288 14.4759
upperneck 13.8391 23.1782 3.47006
head 6.21461 12.1988 0.817671
rclavicle -3.20043e-014 3.33958e-014
rhumerus -11.3787 -23.7221 26.5742
rradius 119.619
rwrist -60.1862
rhand -4.37222 -44.819
rfingers 7.12502
rthumb 21.3965 -73.6575
lclavicle -3.20043e-014 3.33958e-014
lhumerus 25.7751 31.9231 -17.9673
lradius 28.2958
lwrist 35.5424
lhand -24.0584 -15.9381
lfingers 7.12502
lthumb 2.42094 14.028
rfemur -5.89015 10.528 -1.67432
rtibia 8.3915
rfoot 22.8478 -7.1979
rtoes -38.5015
lfemur -23.5872 -7.4191 -20.7131
ltibia 20.1067
lfoot -15.1007 13.5555
ltoes 9.21248
6
root 3.82777 17.6082 4.16337 21.5801 -8.24218 -4.14054
lowerback -8.5089 -1.28266 4.81597
upperback -13.4197 -1.6414 4.52765
thorax -9.59102 -1.05518 2.18454
lowerneck -6.15606 18.6648 14.3956
upperneck 14.3144 23.0778 3.61266
head 6.58155 12.1566 1.03912
rclavicle -3.79679e-014 5.24792e-014
rhumerus -11.9299 -24.1967 26.8378
rradius 119.628
rwrist -60.2247
rhand -4.23651 -44.83
rfingers 7.12502
rthumb 21.5268 -73.6538
lclavicle -3.79679e-014 5.24792e-014
lhumerus 26.102 32.9431 -17.5644
lradius 28.1068
lwrist 34.9989
lhand -24.3461 -16.008
lfingers 7.12502
lthumb 2.14315 13.961
rfemur -5.95784 10.6168 -1.62769
rtibia 8.40351
rfoot 22.8072 -7.23954
rtoes -38.4089
lfemur -23.594 -7.37107 -20.6485
ltibia 20.1103
lfoot -15.1148 13.5754
ltoes 9.39174
7
root 3.8262 17.608 4.16012 21.6176 -8.29266 -4.12785
lowerback -8.55046 -1.24611 4.72758
upperback -13.2825 -1.60129 4.5063
thorax -9.40337 -1.02567 2.20021
lowerneck -6.7391 18.7377 14.3274
upperneck 14.4555 23.0715 3.67361
head 6.70538 12.1531 1.13024
rclavicle 4.21423e-014 -1.74931e-014
rhumerus -12.0889 -24.5388 26.8507
rradius 119.526
rwrist -60.2891
rhand -4.04111 -44.8923
rfingers 7.12502
rthumb 21.7145 -73.6944
lclavicle 4.21423e-014 -1.74931e-014
lhumerus 26.3656 33.6355 -17.2165
lradius 27.9181
lwrist 34.3201
lhand -24.2847 -16.083
lfingers 7.12502
lthumb 2.20241 13.8854
rfemur -6.04031 10.6427 -1.6588
rtibia 8.44074
rfoot 22.751 -7.27161
rtoes -38.1635
lfemur -23.6442 -7.38933 -20.6451
ltibia 20.1043
lfoot -15.0969 13.6107
ltoes 9.48548
8
root 3.82869 17.6078 4.16019 21.7074 -8.27502 -4.0502
lowerback -8.64783 -1.2509 4.68008
upperback -13.3022 -1.61492 4.47773
thorax -9.36844 -1.0299 2.19313
lowerneck -6.66742 18.7433 14.3285
upperneck 14.3701 23.0961 3.64765
head 6.66981 12.1611 1.1127
rclavicle -2.5842e-014 5.1684e-014
rhumerus -12.0206 -24.6661 26.7164
rradius 119.408
rwrist -60.2478
rhand -4.0323 -44.9721
rfingers 7.12502
rthumb 21.7229 -73.7732
lclavicle -2.5842e-014 5.1684e-014
lhumerus 26.4505 33.8316 -17.1049
lradius 27.8514
lwrist 34.0821
lhand -24.1225 -16.0493
lfingers 7.12502
lthumb 2.3591 13.9174
rfemur -6.13224 10.5607 -1.76247
rtibia 8.49126
rfoot 22.7378 -7.24394
rtoes -38.0149
lfemur -23.7488 -7.37984 -20.7275
ltibia 20.0884
lfoot -15.0897 13.5373
ltoes 9.58125
9
root 3.83039 17.6087 4.15976 21.742 -8.2611 -4.03001
lowerback -8.67544 -1.23961 4.68431
upperback -13.3165 -1.60316 4.44378
thorax -9.37012 -1.02656 2.15411
lowerneck -6.40357 18.6834 14.4795
upperneck 14.1007 23.0798 3.41468
head 6.58363 12.1374 0.987836
rclavicle 7.95139e-015 3.97569e-014
rhumerus -12.0846 -24.6501 26.7319
rradius 119.395
rwrist -60.2592
rhand -4.21999 -44.9641
rfingers 7.12502
rthumb 21.5427 -73.786
lclavicle 7.95139e-015 3.97569e-014
lhumerus 26.55 33.9634 -17.0235
lradius 27.7996
lwrist 33.8974
lhand -23.7636 -16.2014
lfingers 7.12502
lthumb 2.70569 13.7612
rfemur -6.16136 10.5263 -1.79301
rtibia 8.46093
rfoot 22.764 -7.25877
rtoes -38.3049
lfemur -23.7998 -7.37423 -20.7499
ltibia 20.0831
lfoot -15.0809 13.5123
ltoes 9.50022
10
root 3.83058 17.6086 4.1653 21.7008 -8.31309 -4.079
lowerback -8.66125 -1.21854 4.71581
upperback -13.2942 -1.57514 4.45525
thorax -9.35364 -1.01457 2.14839
lowerneck -6.39175 18.6636 14.5651
upperneck 14.0667 23.0649 3.28316
head 6.59567 12.1235 0.938705
rclavicle -3.77691e-015 -1.27222e-014
rhumerus -12.1249 -24.5443 26.7756
rradius 119.475
rwrist -60.2675
rhand -4.61011 -44.9611
rfingers 7.12502
rthumb 21.168 -73.8255
lclavicle -3.77691e-015 -1.27222e-014
lhumerus 26.327 33.7143 -17.3013
lradius 27.851
lwrist 34.0695
lhand -23.4329 -16.3531
lfingers 7.12502
lthumb 3.02505 13.6052
rfemur -6.07716 10.6059 -1.76234
rtibia 8.34402
rfoot 22.7944 -7.28866
rtoes -38.7892
lfemur -23.7333 -7.41923 -20.7123
ltibia 20.0929
lfoot -15.1014 13.6411
ltoes 9.52386
11
root 3.831 17.6083 4.1687 21.7014 -8.3404 -4.11632
lowerback -8.62911 -1.21657 4.73104
upperback -13.32 -1.56745 4.48724
thorax -9.40227 -1.01083 2.1772
lowerneck -6.49689 18.729 14.6061
upperneck 14.2571 23.1227 3.32488
head 6.67789 12.1605 0.977484
rclavicle -3.93594e-014 7.95139e-016
rhumerus -12.0473 -24.4791 26.7293
rradius 119.501
rwrist -60.2031
rhand -4.70047 -45.0276
rfingers 7.12502
rthumb 21.0812 -73.9016
lclavicle -3.93594e-014 7.95139e-016
lhumerus 25.9931 33.2691 -17.6958
lradius 27.9781
lwrist 34.5254
lhand -23.2471 -16.0819
lfingers 7.12502
lthumb 3.20449 13.8738
rfemur -6.0155 10.6441 -1.73819
rtibia 8.22496
rfoot 22.8594 -7.31223
rtoes -38.835
lfemur -23.7134 -7.41531 -20.6833
ltibia 20.0983
lfoot -15.1455 13.6701
ltoes 9.79738
12
root 3.83199 17.6089 4.16625 21.727 -8.26796 -4.15124
lowerback -8.59659 -1.21786 4.77658
upperback -13.3513 -1.56573 4.48726
thorax -9.45961 -1.01463 2.1552
lowerneck -6.30762 18.7168 14.759
upperneck 14.1274 23.1499 3.14169
head 6.64608 12.1649 0.888805
rclavicle -3.20043e-014 5.32743e-014
rhumerus -12.0474 -24.5268 26.7168
rradius 119.42
rwrist -60.1027
rhand -4.24076 -45.0909
rfingers 7.12502
rthumb 21.5227 -73.9151
lclavicle -3.20043e-014 5.32743e-014
lhumerus 25.965 33.1405 -17.7604
lradius 28.014
lwrist 34.605
lhand -23.1641 -15.9094
lfingers 7.12502
lthumb 3.28464 14.045
rfemur -5.9859 10.5872 -1.66914
rtibia 8.17777
rfoot 22.8933 -7.34651
rtoes -38.7074
lfemur -23.7453 -7.35922 -20.6392
ltibia 20.0857
lfoot -15.1154 13.5681
ltoes 9.74809
13
root 3.8327 17.6096 4.1647 21.7192 -8.19612 -4.12118
lowerback -8.64522 -1.22745 4.75762
upperback -13.3037 -1.58438 4.47557
thorax -9.37558 -1.02176 2.14831
lowerneck -6.37061 18.6992 14.7483
upperneck 14.095 23.129 3.06187
head 6.65264 12.1471 0.869201
rclavicle -4.96962e-015 2.70347e-014
rhumerus -12.1177 -24.6134 26.7251
rradius 119.355
rwrist -59.9498
rhand -3.93403 -45.0438
rfingers 7.12502
rthumb 21.8173 -73.834
lclavicle -4.96962e-015 2.70347e-014
lhumerus 25.9547 33.2407 -17.756
lradius 28.0175
lwrist 34.5473
lhand -22.8055 -15.9082
lfingers 7.12502
lthumb 3.63095 14.0407
rfemur -5.97149 10.5162 -1.66429
rtibia 8.23642
rfoot 22.8473 -7.36344
rtoes -38.6191
lfemur -23.7366 -7.3834 -20.6638
ltibia 20.0465
lfoot -15.0303 13.5555
ltoes 9.53287
